<svg width="262" height="42" viewBox="0 0 262 42" fill="none" xmlns="http://www.w3.org/2000/svg">
<path d="M32.1445 7.37393C33.0401 7.37893 33.8985 7.72533 34.5376 8.33964C35.1766 8.95395 35.5461 9.78784 35.5675 10.6644C35.5766 11.1049 35.4968 11.5429 35.3328 11.9532C35.1689 12.3635 34.9239 12.7382 34.612 13.0558C34.3 13.3734 33.9272 13.6277 33.5147 13.8041C33.1023 13.9806 32.6585 14.0757 32.2085 14.0841H32.1383C31.2423 14.0791 30.3836 13.7324 29.7445 13.1177C29.1054 12.503 28.7362 11.6686 28.7153 10.7916C28.7062 10.3511 28.786 9.91318 28.9499 9.50285C29.1139 9.09251 29.3589 8.71784 29.6708 8.40024C29.9828 8.08265 30.3556 7.82835 30.7681 7.65191C31.1805 7.47546 31.6243 7.38031 32.0743 7.37191H32.1445V7.37393ZM32.1445 4.1178H32.0083C30.2354 4.15984 28.5505 4.88316 27.3179 6.13141C26.0853 7.37967 25.4039 9.05262 25.421 10.7887C25.438 12.5248 26.1522 14.1846 27.4092 15.4094C28.6661 16.6342 30.3649 17.3256 32.1383 17.3342H32.2745C34.0188 17.253 35.663 16.5133 36.862 15.2704C38.061 14.0276 38.7214 12.3782 38.7046 10.6688C38.6878 8.95933 37.995 7.32276 36.7718 6.10274C35.5486 4.88273 33.89 4.17417 32.1445 4.12588V4.1178Z" fill="#FAFBFD"/>
<path d="M38.799 1.65193L37.2119 3.19757C36.9994 3.40449 36.9985 3.74086 37.2099 3.94886L38.7887 5.50263C39.0001 5.71063 39.3437 5.71151 39.5561 5.50459L41.1433 3.95894C41.3558 3.75202 41.3567 3.41566 41.1453 3.20766L39.5664 1.65389C39.3551 1.44589 39.0115 1.44501 38.799 1.65193Z" fill="#FAFBFD"/>
<path d="M11.3256 6.95378C12.0033 6.95378 12.6657 7.15046 13.2292 7.51894C13.7927 7.88743 14.232 8.41118 14.4915 9.02401C14.751 9.63684 14.8191 10.3112 14.6872 10.962C14.5553 11.6127 14.2293 12.2105 13.7505 12.6799C13.2716 13.1493 12.6613 13.4691 11.9968 13.599C11.3322 13.7289 10.6433 13.6631 10.017 13.4098C9.39066 13.1564 8.85513 12.727 8.47805 12.1758C8.10097 11.6246 7.89928 10.9763 7.89846 10.3129C7.89846 9.42273 8.2594 8.56893 8.902 7.93908C9.5446 7.30924 10.4163 6.95485 11.3256 6.95378ZM11.3256 3.69968C9.99055 3.69968 8.68544 4.0872 7.57531 4.81325C6.46518 5.5393 5.59986 6.57128 5.08876 7.77872C4.57766 8.98616 4.44373 10.3148 4.70389 11.5968C4.96405 12.8787 5.60662 14.0564 6.55038 14.9809C7.49413 15.9054 8.69669 16.5351 10.006 16.7906C11.3153 17.0461 12.6726 16.9158 13.9063 16.4162C15.14 15.9165 16.1947 15.0701 16.937 13.9837C17.6793 12.8974 18.076 11.6199 18.0768 10.3129C18.0768 8.56006 17.3655 6.87898 16.0994 5.63951C14.8333 4.40004 13.1161 3.70372 11.3256 3.70372V3.69968Z" fill="white"/>
<path d="M17.2059 23.5778L6.96982 36.463L3.71392 23.5778H17.208H17.2059ZM20.0492 20.3237H1.93534C1.64178 20.3239 1.35211 20.3895 1.08825 20.5155C0.824398 20.6414 0.593273 20.8245 0.41237 21.0508C0.231468 21.2772 0.105529 21.5408 0.0440869 21.8219C-0.0173555 22.1029 -0.0126917 22.3939 0.0577254 22.6729L4.43195 39.9675C4.53405 40.3806 4.77605 40.7476 5.11852 41.0088C5.46099 41.27 5.88372 41.4099 6.31782 41.4057C6.61214 41.4076 6.90288 41.3425 7.16713 41.2157C7.43138 41.0888 7.66191 40.9035 7.84054 40.6745L21.5822 23.3799C21.8041 23.0999 21.9413 22.7647 21.9783 22.4123C22.0154 22.0598 21.9507 21.7043 21.7917 21.386C21.6327 21.0677 21.3857 20.7994 21.0788 20.6117C20.7718 20.4239 20.4173 20.3241 20.0554 20.3237H20.0492Z" fill="white"/>
<path d="M31.1251 25.214L34.4264 38.1415H20.7466L31.1251 25.214ZM31.775 20.2853C31.483 20.2846 31.1947 20.3496 30.9325 20.4754C30.6702 20.6011 30.441 20.7842 30.2626 21.0105L16.3662 38.3435C16.1428 38.623 16.0041 38.9582 15.9659 39.3111C15.9276 39.664 15.9914 40.0203 16.1499 40.3394C16.3083 40.6586 16.5552 40.9277 16.8623 41.1162C17.1694 41.3047 17.5244 41.405 17.8868 41.4057H36.2091C36.5028 41.4057 36.7927 41.3401 37.0567 41.214C37.3207 41.0879 37.5518 40.9046 37.7326 40.6779C37.9134 40.4513 38.0391 40.1873 38.1001 39.906C38.1611 39.6247 38.1558 39.3335 38.0846 39.0545L33.6609 21.7276C33.5589 21.3141 33.3171 20.9466 32.9747 20.6847C32.6323 20.4229 32.2095 20.2821 31.775 20.2853Z" fill="#FAFBFD"/>
<path d="M55.5711 39.1212C55.4956 39.1296 55.4192 39.1212 55.3476 39.0967C55.2759 39.0721 55.2109 39.032 55.1573 38.9794C55.1037 38.9267 55.063 38.8629 55.0382 38.7926C55.0133 38.7224 55.0051 38.6476 55.014 38.5738V13.1227C55.0051 13.0488 55.0133 12.974 55.0382 12.9038C55.063 12.8336 55.1037 12.7697 55.1573 12.7171C55.2109 12.6644 55.2759 12.6243 55.3476 12.5998C55.4192 12.5752 55.4956 12.5668 55.5711 12.5753H57.8861C58.2451 12.5753 58.404 12.7772 58.404 13.1227L58.4824 16.0516C59.8793 13.6276 62.3532 12.1066 65.704 12.1066C71.3286 12.1066 75.2365 16.4414 75.2365 22.1416C75.2365 27.8823 71.3286 32.1767 65.704 32.1767C62.4749 32.1767 60.0402 30.7627 58.6454 28.5064V38.5798C58.6539 38.6538 58.6454 38.7286 58.6203 38.7988C58.5952 38.869 58.5543 38.9328 58.5005 38.9854C58.4468 39.038 58.3817 39.0781 58.3099 39.1026C58.2382 39.1272 58.1617 39.1356 58.0862 39.1272L55.5711 39.1212ZM71.7247 22.1356C71.7247 18.1139 68.9331 15.3426 65.0644 15.3426C61.2349 15.3426 58.5629 18.1139 58.5629 22.176C58.5629 26.2381 61.2349 28.9306 65.0644 28.9306C68.9331 28.9306 71.7247 26.1977 71.7247 22.1356Z" fill="white"/>
<path d="M78.9053 22.0589C78.9053 16.4354 82.9328 12.1006 88.7968 12.1006C94.6194 12.1006 98.0095 16.4354 98.0095 21.16C98.0095 22.7214 97.6896 23.4243 96.3753 23.4243H82.415C82.8524 26.8582 85.3655 29.2821 89.6737 29.2821C91.5779 29.3201 93.442 28.7437 94.9785 27.642C95.2178 27.4864 95.4571 27.4864 95.616 27.6803L96.495 28.8923C96.7735 29.2054 96.6539 29.4397 96.334 29.7124C94.6194 31.3526 92.1063 32.1727 89.3539 32.1727C82.9741 32.1706 78.9053 27.6803 78.9053 22.0589ZM94.8196 20.8085C94.6132 17.3747 92.3065 15.1083 88.7968 15.1083C85.2871 15.1083 82.8132 17.2555 82.415 20.8085H94.8196Z" fill="white"/>
<path d="M103.236 31.702C103.16 31.7107 103.084 31.7026 103.012 31.6783C102.94 31.654 102.875 31.6142 102.821 31.5617C102.768 31.5092 102.727 31.4456 102.702 31.3754C102.677 31.3053 102.668 31.2305 102.677 31.1566V13.1166C102.668 13.0427 102.677 12.9679 102.702 12.8977C102.727 12.8274 102.768 12.7636 102.821 12.711C102.875 12.6584 102.94 12.6184 103.012 12.5938C103.084 12.5693 103.16 12.5609 103.236 12.5692H105.588C105.986 12.5692 106.147 12.7268 106.147 13.155L106.261 15.4194C106.979 13.5449 108.295 12.1006 110.686 12.1006C111.524 12.1006 112.131 12.2582 112.481 12.4925C112.594 12.5708 112.683 12.6771 112.739 12.8003C112.795 12.9236 112.817 13.0593 112.801 13.1934V15.1083C112.801 15.5385 112.523 15.6153 112.083 15.4981C111.615 15.3591 111.128 15.291 110.639 15.2961C107.383 15.3022 106.261 18.0372 106.261 20.3399V31.1566C106.261 31.5081 106.102 31.702 105.743 31.702H103.236Z" fill="white"/>
<path d="M116.557 29.2034C116.278 28.8903 116.317 28.5792 116.557 28.1934L117.355 27.1006C117.634 26.7492 117.993 26.7492 118.312 27.0622C119.627 28.3126 121.063 29.1711 123.017 29.1711C125.053 29.1711 126.448 28.2722 126.448 26.5148C126.448 24.9534 125.371 24.2121 123.656 23.5092L121.304 22.5336C118.909 21.5559 116.955 20.1097 116.955 17.4171C116.955 14.0983 119.827 12.1067 123.178 12.1067C124.314 12.0903 125.44 12.3271 126.469 12.7992C127.499 13.2712 128.405 13.9662 129.12 14.8316C129.216 14.9473 129.266 15.0938 129.258 15.2429C129.251 15.392 129.188 15.5332 129.081 15.6395L128.132 16.7485C127.812 17.1383 127.533 17.1 127.174 16.7485C125.936 15.5365 124.698 14.9911 123.345 14.9911C121.711 14.9911 120.394 15.8112 120.394 17.3343C120.394 18.9341 121.591 19.5986 123.345 20.2632L125.499 21.1216C128.012 22.1316 130.038 23.6203 130.005 26.5876C130.005 30.2234 126.815 32.1706 123.196 32.1706C119.986 32.1706 117.792 30.686 116.557 29.2034Z" fill="white"/>
<path d="M133.703 22.1356C133.703 16.4354 138.05 12.1006 143.794 12.1006C149.539 12.1006 153.845 16.4354 153.845 22.1356C153.845 27.8359 149.536 32.1706 143.794 32.1706C138.052 32.1706 133.703 27.8359 133.703 22.1356ZM150.374 22.1356C150.374 18.1139 147.543 15.3426 143.794 15.3426C140.004 15.3426 137.212 18.1139 137.212 22.1356C137.212 26.1573 140.004 28.8903 143.794 28.8903C147.547 28.8903 150.378 26.1573 150.378 22.1356H150.374Z" fill="white"/>
<path d="M159.081 31.702C159.006 31.7107 158.929 31.7026 158.858 31.6783C158.786 31.654 158.721 31.6141 158.667 31.5617C158.613 31.5092 158.572 31.4456 158.547 31.3754C158.522 31.3053 158.513 31.2305 158.522 31.1566V13.1166C158.514 13.0427 158.522 12.9679 158.547 12.8976C158.572 12.8274 158.613 12.7636 158.667 12.711C158.721 12.6584 158.786 12.6184 158.858 12.5938C158.929 12.5693 159.006 12.5609 159.081 12.5692H161.433C161.832 12.5692 161.993 12.7268 161.993 13.155L162.112 15.5789C163.228 13.6257 165.302 12.1026 168.453 12.1026C172.641 12.1026 175.553 14.876 175.553 19.9137V31.1587C175.561 31.2325 175.553 31.3073 175.528 31.3774C175.503 31.4476 175.462 31.5113 175.408 31.5637C175.354 31.6162 175.289 31.656 175.217 31.6803C175.145 31.7046 175.069 31.7127 174.993 31.704H172.476C172.117 31.704 171.956 31.502 171.956 31.1587V20.453C171.956 17.2514 170.281 15.3386 167.291 15.3386C164.301 15.3386 162.106 17.2555 162.106 20.4571V31.1627C162.106 31.5142 161.947 31.7081 161.588 31.7081L159.081 31.702Z" fill="white"/>
<path d="M180.214 22.1356C180.214 16.4354 184.122 12.1006 189.746 12.1006C193.095 12.1006 195.569 13.6236 196.968 16.0455L197.048 13.1166C197.048 12.7652 197.209 12.5692 197.566 12.5692H199.881C199.957 12.5608 200.033 12.5692 200.105 12.5937C200.176 12.6183 200.242 12.6584 200.295 12.7111C200.349 12.7637 200.389 12.8275 200.414 12.8978C200.439 12.968 200.447 13.0428 200.438 13.1166V31.1566C200.447 31.2303 200.438 31.3049 200.414 31.3749C200.389 31.4448 200.348 31.5084 200.294 31.5608C200.241 31.6132 200.176 31.6531 200.104 31.6776C200.033 31.702 199.957 31.7104 199.881 31.702H197.562C197.205 31.702 197.044 31.5 197.044 31.1566L196.964 28.3065C195.52 30.686 193.095 32.1706 189.742 32.1706C184.122 32.1706 180.214 27.8763 180.214 22.1356ZM196.885 22.176C196.885 18.1139 194.203 15.3426 190.384 15.3426C186.515 15.3426 183.724 18.1139 183.724 22.1356C183.724 26.1977 186.515 28.9307 190.384 28.9307C194.213 28.9307 196.885 26.2361 196.885 22.176Z" fill="white"/>
<path d="M206.657 31.702C206.582 31.7107 206.505 31.7026 206.434 31.6783C206.362 31.654 206.297 31.6142 206.243 31.5617C206.189 31.5092 206.148 31.4456 206.123 31.3754C206.098 31.3053 206.089 31.2305 206.098 31.1566V4.32793C206.089 4.25401 206.098 4.17916 206.123 4.10894C206.148 4.03872 206.189 3.97493 206.243 3.92233C206.297 3.86973 206.362 3.82967 206.433 3.80512C206.505 3.78056 206.582 3.77216 206.657 3.78053H209.17C209.246 3.77209 209.322 3.78047 209.394 3.80503C209.465 3.82959 209.53 3.8697 209.584 3.92234C209.638 3.97499 209.678 4.03882 209.703 4.10906C209.728 4.1793 209.736 4.25412 209.727 4.32793V31.1526C209.736 31.2262 209.727 31.3008 209.702 31.3708C209.677 31.4408 209.637 31.5044 209.583 31.5568C209.529 31.6092 209.465 31.6491 209.393 31.6736C209.322 31.698 209.245 31.7064 209.17 31.698L206.657 31.702Z" fill="white"/>
<path d="M214.314 29.8679C214.314 29.2465 214.566 28.6505 215.015 28.2111C215.464 27.7717 216.073 27.5248 216.708 27.5248C217.342 27.5248 217.951 27.7717 218.4 28.2111C218.849 28.6505 219.101 29.2465 219.101 29.8679C219.101 30.4894 218.849 31.0853 218.4 31.5248C217.951 31.9642 217.342 32.211 216.708 32.211C216.073 32.211 215.464 31.9642 215.015 31.5248C214.566 31.0853 214.314 30.4894 214.314 29.8679Z" fill="#FAFBFD"/>
<path d="M222.691 22.1356C222.691 16.4354 226.599 12.1006 232.224 12.1006C235.573 12.1006 238.047 13.6236 239.445 16.0455L239.524 13.1166C239.524 12.7652 239.685 12.5692 240.042 12.5692H242.357C242.432 12.5608 242.509 12.5692 242.58 12.5937C242.652 12.6183 242.717 12.6584 242.771 12.7111C242.824 12.7637 242.865 12.8275 242.89 12.8978C242.914 12.968 242.923 13.0428 242.914 13.1166V31.1566C242.922 31.2303 242.914 31.3049 242.889 31.3749C242.864 31.4448 242.823 31.5084 242.77 31.5608C242.716 31.6132 242.651 31.6531 242.58 31.6776C242.508 31.702 242.432 31.7104 242.357 31.702H240.042C239.685 31.702 239.524 31.5 239.524 31.1566L239.445 28.3065C238.001 30.686 235.575 32.1706 232.224 32.1706C226.599 32.1706 222.691 27.8763 222.691 22.1356ZM239.363 22.176C239.363 18.1139 236.691 15.3426 232.861 15.3426C228.993 15.3426 226.201 18.1139 226.201 22.1356C226.201 26.1977 228.993 28.9307 232.861 28.9307C236.691 28.9307 239.363 26.2361 239.363 22.176Z" fill="white"/>
<path d="M249.135 31.702C248.776 31.702 248.617 31.5 248.617 31.1566V13.1166C248.617 12.7652 248.776 12.5692 249.135 12.5692H251.648C251.723 12.5609 251.8 12.5693 251.871 12.5938C251.943 12.6184 252.008 12.6584 252.062 12.711C252.116 12.7637 252.157 12.8274 252.182 12.8977C252.207 12.9679 252.215 13.0427 252.207 13.1166V31.1566C252.215 31.2305 252.207 31.3053 252.182 31.3754C252.157 31.4456 252.116 31.5092 252.062 31.5617C252.008 31.6142 251.943 31.654 251.871 31.6783C251.8 31.7026 251.723 31.7107 251.648 31.702H249.135Z" fill="white"/>
<path d="M249.865 4.03269L247.691 6.32325C247.458 6.56841 247.472 6.95183 247.723 7.17965L250.062 9.30817C250.313 9.53599 250.705 9.52193 250.937 9.27676L253.111 6.98621C253.344 6.74105 253.33 6.35762 253.079 6.12981L250.74 4.00129C250.489 3.77347 250.098 3.78753 249.865 4.03269Z" fill="#FAFBFD"/>
<path d="M256.344 29.6942H258.327V29.9608H257.501V32.0352H257.194V29.9608H256.369L256.344 29.6942Z" fill="white"/>
<path d="M259.771 32.0352L259.016 30.2517V32.0352H258.723V29.6942H259.07L259.881 31.6151L260.687 29.6942H261.009V32.0352H260.716V30.2517L259.969 32.0352H259.771Z" fill="white"/>
</svg>
